<?xml version="1.0" encoding="UTF-8"?>
<svg xmlns="http://www.w3.org/2000/svg" xmlns:xlink="http://www.w3.org/1999/xlink" width="32px" height="32px" viewBox="0 0 32 32" version="1.1">
<g id="surface1">
<path style=" stroke:none;fill-rule:evenodd;fill:rgb(40.392157%,73.72549%,26.666667%);fill-opacity:1;" d="M 9.253906 -0.0195312 C 13.726562 -0.0195312 18.199219 -0.0195312 22.671875 -0.0195312 C 23.742188 0.21875 24.597656 0.828125 25.234375 1.8125 C 27.363281 5.921875 29.496094 10.035156 31.625 14.144531 C 31.8125 14.601562 31.933594 15.074219 31.980469 15.5625 C 31.980469 15.839844 31.980469 16.117188 31.980469 16.394531 C 31.933594 16.917969 31.800781 17.417969 31.589844 17.894531 C 29.46875 21.980469 27.351562 26.0625 25.234375 30.144531 C 24.597656 31.128906 23.742188 31.742188 22.671875 31.980469 C 18.199219 31.980469 13.726562 31.980469 9.253906 31.980469 C 8.257812 31.75 7.445312 31.191406 6.804688 30.3125 C 4.667969 26.179688 2.527344 22.054688 0.375 17.9375 C 0.179688 17.511719 0.046875 17.066406 -0.0195312 16.605469 C -0.0195312 16.171875 -0.0195312 15.742188 -0.0195312 15.3125 C 0.0546875 14.867188 0.1875 14.433594 0.375 14.019531 C 2.527344 9.902344 4.667969 5.777344 6.804688 1.644531 C 7.445312 0.765625 8.257812 0.210938 9.253906 -0.0195312 Z M 15.71875 5.230469 C 16.457031 5.199219 16.933594 5.574219 17.160156 6.355469 C 17.183594 9.464844 17.183594 12.578125 17.160156 15.6875 C 16.863281 16.660156 16.273438 17 15.382812 16.707031 C 14.992188 16.5 14.75 16.160156 14.652344 15.6875 C 14.628906 12.589844 14.628906 9.492188 14.652344 6.394531 C 14.808594 5.773438 15.164062 5.382812 15.71875 5.230469 Z M 11.269531 7.230469 C 12.121094 7.335938 12.515625 7.863281 12.449219 8.8125 C 12.394531 8.992188 12.320312 9.15625 12.222656 9.3125 C 9.917969 11.28125 9.035156 13.867188 9.570312 17.0625 C 10.117188 19.339844 11.34375 20.984375 13.253906 22 C 15.660156 23.058594 17.902344 22.742188 19.980469 21.042969 C 22.097656 18.980469 22.828125 16.417969 22.167969 13.355469 C 21.882812 12.300781 21.421875 11.355469 20.785156 10.519531 C 20.371094 10.074219 19.949219 9.644531 19.515625 9.230469 C 19.144531 8.429688 19.300781 7.796875 19.980469 7.332031 C 20.375 7.167969 20.746094 7.207031 21.101562 7.457031 C 23.410156 9.445312 24.609375 12.078125 24.691406 15.355469 C 24.546875 19.242188 22.964844 22.136719 19.945312 24.042969 C 17.253906 25.515625 14.5625 25.515625 11.871094 24.042969 C 8.851562 22.136719 7.269531 19.242188 7.121094 15.355469 C 7.203125 12.039062 8.425781 9.394531 10.785156 7.417969 C 10.941406 7.324219 11.105469 7.261719 11.269531 7.230469 Z M 11.269531 7.230469 "/>
</g>
</svg>
