<?xml version="1.0" encoding="UTF-8"?>
<svg xmlns="http://www.w3.org/2000/svg" xmlns:xlink="http://www.w3.org/1999/xlink" width="32px" height="32px" viewBox="0 0 32 28" version="1.1">
<g id="surface1">
<path style=" stroke:none;fill-rule:nonzero;fill:rgb(42.745098%,70.196078%,24.705882%);fill-opacity:1;" d="M 31.59375 12.320312 L 25.285156 1.6875 C 24.742188 0.765625 23.398438 0.0078125 22.300781 0.0078125 L 9.699219 0.0078125 C 8.609375 0.0078125 7.257812 0.765625 6.714844 1.6875 L 0.414062 12.320312 C -0.132812 13.242188 -0.132812 14.753906 0.414062 15.675781 L 6.714844 26.3125 C 7.257812 27.234375 8.601562 27.992188 9.699219 27.992188 L 22.304688 27.992188 C 23.398438 27.992188 24.742188 27.234375 25.292969 26.3125 L 31.59375 15.675781 C 32.136719 14.753906 32.136719 13.242188 31.59375 12.320312 Z M 14.636719 5.886719 C 14.636719 5.191406 15.222656 4.621094 15.9375 4.621094 C 16.652344 4.621094 17.234375 5.191406 17.234375 5.886719 L 17.234375 13.449219 C 17.234375 14.148438 16.652344 14.714844 15.9375 14.714844 C 15.222656 14.714844 14.636719 14.148438 14.636719 13.449219 Z M 15.9375 22.03125 C 11.082031 22.03125 7.128906 18.183594 7.128906 13.449219 C 7.132812 10.734375 8.453125 8.1875 10.683594 6.558594 C 11.199219 6.1875 11.921875 6.289062 12.304688 6.792969 C 12.6875 7.292969 12.582031 7.996094 12.066406 8.371094 C 9.1875 10.453125 8.582031 14.421875 10.722656 17.226562 C 12.863281 20.035156 16.933594 20.621094 19.816406 18.535156 C 21.464844 17.34375 22.4375 15.453125 22.4375 13.449219 C 22.429688 11.4375 21.453125 9.550781 19.789062 8.351562 C 19.273438 7.984375 19.167969 7.273438 19.546875 6.773438 C 19.921875 6.273438 20.648438 6.167969 21.164062 6.535156 C 23.417969 8.15625 24.742188 10.722656 24.746094 13.449219 C 24.746094 18.1875 20.792969 22.03125 15.9375 22.03125 Z M 15.9375 22.03125 "/>
</g>
</svg>
