<?xml version="1.0" encoding="UTF-8"?>
<svg xmlns="http://www.w3.org/2000/svg" width="16px" height="16px" viewBox="0 0 16 16" version="1.1">
    <g id="surface1">
        <path style=" stroke:none;fill-rule:nonzero;fill:rgb(31.4%,56.1%,25.5%);fill-opacity:1;"
              d="M 15.949219 5.109375 C 15.949219 5.691406 15.460938 6.164062 14.859375 6.164062 C 14.257812 6.164062 13.769531 5.691406 13.769531 5.109375 C 13.769531 4.527344 14.257812 4.054688 14.859375 4.054688 C 15.460938 4.054688 15.949219 4.527344 15.949219 5.109375 Z M 15.949219 5.109375 "/>
        <path style=" stroke:none;fill-rule:nonzero;fill:rgb(31.4%,56.1%,25.5%);fill-opacity:1;"
              d="M 15.949219 10.757812 C 15.949219 11.339844 15.460938 11.8125 14.859375 11.8125 C 14.257812 11.8125 13.769531 11.339844 13.769531 10.757812 C 13.769531 10.175781 14.257812 9.703125 14.859375 9.703125 C 15.460938 9.703125 15.949219 10.175781 15.949219 10.757812 Z M 15.949219 10.757812 "/>
        <path style=" stroke:none;fill-rule:nonzero;fill:rgb(31.4%,56.1%,25.5%);fill-opacity:1;"
              d="M 10.171875 4.011719 L 10.171875 4.953125 C 11.039062 5.058594 11.792969 5.496094 12.289062 6.140625 L 13.132812 5.671875 C 13.070312 5.496094 13.039062 5.3125 13.039062 5.117188 C 13.039062 4.566406 13.304688 4.074219 13.714844 3.757812 C 13.113281 3.222656 12.394531 2.816406 11.601562 2.570312 C 11.484375 3.285156 10.914062 3.859375 10.171875 4.011719 Z M 10.171875 4.011719 "/>
        <path style=" stroke:none;fill-rule:nonzero;fill:rgb(31.4%,56.1%,25.5%);fill-opacity:1;"
              d="M 13.503906 6.273438 L 12.660156 6.746094 C 12.816406 7.113281 12.914062 7.515625 12.914062 7.933594 C 12.914062 8.351562 12.828125 8.753906 12.660156 9.121094 L 13.503906 9.59375 C 13.84375 9.222656 14.320312 9 14.859375 9 C 15.089844 9 15.300781 9.039062 15.515625 9.109375 C 15.597656 8.730469 15.640625 8.332031 15.640625 7.921875 C 15.640625 7.515625 15.597656 7.125 15.515625 6.734375 C 15.3125 6.808594 15.089844 6.859375 14.859375 6.859375 C 14.320312 6.867188 13.832031 6.632812 13.503906 6.273438 Z M 13.503906 6.273438 "/>
        <path style=" stroke:none;fill-rule:nonzero;fill:rgb(31.4%,56.1%,25.5%);fill-opacity:1;"
              d="M 13.050781 10.757812 C 13.050781 10.5625 13.082031 10.378906 13.144531 10.207031 L 12.300781 9.734375 C 11.800781 10.378906 11.039062 10.820312 10.183594 10.921875 L 10.183594 11.863281 C 10.925781 12.007812 11.496094 12.589844 11.613281 13.316406 C 12.40625 13.074219 13.125 12.664062 13.726562 12.128906 C 13.304688 11.804688 13.050781 11.3125 13.050781 10.757812 Z M 13.050781 10.757812 "/>
        <path style=" stroke:none;fill-rule:nonzero;fill:rgb(31.4%,56.1%,25.5%);fill-opacity:1;"
              d="M 10.890625 13.585938 C 10.890625 14.167969 10.40625 14.636719 9.804688 14.636719 C 9.203125 14.636719 8.714844 14.167969 8.714844 13.585938 C 8.714844 13 9.203125 12.53125 9.804688 12.53125 C 10.40625 12.53125 10.890625 13 10.890625 13.585938 Z M 10.890625 13.585938 "/>
        <path style=" stroke:none;fill-rule:nonzero;fill:rgb(31.4%,56.1%,25.5%);fill-opacity:1;"
              d="M 9.445312 11.855469 L 9.445312 10.914062 C 8.015625 10.75 6.875 9.644531 6.726562 8.25 C 5.085938 7.707031 3.660156 6.816406 2.875 6.183594 C 3.699219 6.703125 5.140625 7.113281 6.769531 7.328125 C 7.03125 6.082031 8.109375 5.109375 9.445312 4.953125 L 9.445312 4.011719 C 8.683594 3.859375 8.078125 3.246094 7.996094 2.476562 C 5.761719 2.96875 3.035156 4.113281 0.0429688 1.585938 C 0.0429688 7.257812 3.160156 12.582031 7.996094 13.449219 C 8.058594 12.664062 8.660156 12.019531 9.445312 11.855469 Z M 9.445312 11.855469 "/>
        <path style=" stroke:none;fill-rule:nonzero;fill:rgb(31.4%,56.1%,25.5%);fill-opacity:1;"
              d="M 12.171875 7.933594 C 12.171875 6.667969 11.113281 5.640625 9.804688 5.640625 C 8.496094 5.640625 7.433594 6.667969 7.433594 7.933594 C 7.433594 9.199219 8.496094 10.226562 9.804688 10.226562 C 11.113281 10.226562 12.171875 9.199219 12.171875 7.933594 Z M 12.171875 7.933594 "/>
        <path style=" stroke:none;fill-rule:nonzero;fill:rgb(31.4%,56.1%,25.5%);fill-opacity:1;"
              d="M 10.890625 2.28125 C 10.890625 2.863281 10.40625 3.335938 9.804688 3.335938 C 9.203125 3.335938 8.714844 2.863281 8.714844 2.28125 C 8.714844 1.699219 9.203125 1.226562 9.804688 1.226562 C 10.40625 1.226562 10.890625 1.699219 10.890625 2.28125 Z M 10.890625 2.28125 "/>
    </g>
</svg>
