<?xml version="1.0" encoding="UTF-8"?>
<svg xmlns="http://www.w3.org/2000/svg" width="32px" height="32px" viewBox="0 0 32 33" version="1.1">
    <g id="surface1">
        <path style=" stroke:none;fill-rule:nonzero;fill:rgb(31.4%,56.1%,25.5%);fill-opacity:1;"
              d="M 31.894531 10.535156 C 31.894531 11.738281 30.917969 12.710938 29.714844 12.710938 C 28.511719 12.710938 27.539062 11.738281 27.539062 10.535156 C 27.539062 9.335938 28.511719 8.359375 29.714844 8.359375 C 30.917969 8.359375 31.894531 9.335938 31.894531 10.535156 Z M 31.894531 10.535156 "/>
        <path style=" stroke:none;fill-rule:nonzero;fill:rgb(31.4%,56.1%,25.5%);fill-opacity:1;"
              d="M 31.894531 22.191406 C 31.894531 23.390625 30.917969 24.363281 29.714844 24.363281 C 28.511719 24.363281 27.539062 23.390625 27.539062 22.191406 C 27.539062 20.988281 28.511719 20.015625 29.714844 20.015625 C 30.917969 20.015625 31.894531 20.988281 31.894531 22.191406 Z M 31.894531 22.191406 "/>
        <path style=" stroke:none;fill-rule:nonzero;fill:rgb(31.4%,56.1%,25.5%);fill-opacity:1;"
              d="M 20.347656 8.277344 L 20.347656 10.21875 C 22.082031 10.429688 23.582031 11.335938 24.578125 12.667969 L 26.269531 11.695312 C 26.140625 11.335938 26.078125 10.957031 26.078125 10.554688 C 26.078125 9.417969 26.605469 8.402344 27.433594 7.75 C 26.226562 6.652344 24.789062 5.804688 23.203125 5.300781 C 22.96875 6.777344 21.828125 7.960938 20.347656 8.277344 Z M 20.347656 8.277344 "/>
        <path style=" stroke:none;fill-rule:nonzero;fill:rgb(31.4%,56.1%,25.5%);fill-opacity:1;"
              d="M 27.007812 12.941406 L 25.316406 13.914062 C 25.632812 14.671875 25.824219 15.496094 25.824219 16.363281 C 25.824219 17.226562 25.65625 18.050781 25.316406 18.8125 L 27.007812 19.78125 C 27.6875 19.023438 28.636719 18.558594 29.714844 18.558594 C 30.183594 18.558594 30.605469 18.644531 31.027344 18.789062 C 31.195312 18.007812 31.28125 17.1875 31.28125 16.339844 C 31.28125 15.496094 31.195312 14.695312 31.027344 13.890625 C 30.625 14.039062 30.183594 14.144531 29.714844 14.144531 C 28.636719 14.167969 27.664062 13.679688 27.007812 12.941406 Z M 27.007812 12.941406 "/>
        <path style=" stroke:none;fill-rule:nonzero;fill:rgb(31.4%,56.1%,25.5%);fill-opacity:1;"
              d="M 26.101562 22.191406 C 26.101562 21.789062 26.164062 21.410156 26.289062 21.050781 L 24.597656 20.078125 C 23.605469 21.410156 22.082031 22.316406 20.367188 22.527344 L 20.367188 24.46875 C 21.847656 24.765625 22.992188 25.96875 23.222656 27.46875 C 24.808594 26.960938 26.246094 26.117188 27.453125 25.019531 C 26.605469 24.34375 26.101562 23.332031 26.101562 22.191406 Z M 26.101562 22.191406 "/>
        <path style=" stroke:none;fill-rule:nonzero;fill:rgb(31.4%,56.1%,25.5%);fill-opacity:1;"
              d="M 21.785156 28.015625 C 21.785156 29.21875 20.808594 30.191406 19.605469 30.191406 C 18.402344 30.191406 17.425781 29.21875 17.425781 28.015625 C 17.425781 26.816406 18.402344 25.84375 19.605469 25.84375 C 20.808594 25.84375 21.785156 26.816406 21.785156 28.015625 Z M 21.785156 28.015625 "/>
        <path style=" stroke:none;fill-rule:nonzero;fill:rgb(31.4%,56.1%,25.5%);fill-opacity:1;"
              d="M 18.886719 24.449219 L 18.886719 22.507812 C 16.03125 22.167969 13.746094 19.890625 13.453125 17.015625 C 10.171875 15.898438 7.316406 14.0625 5.753906 12.753906 C 7.402344 13.828125 10.277344 14.671875 13.535156 15.117188 C 14.066406 12.542969 16.222656 10.535156 18.886719 10.21875 L 18.886719 8.277344 C 17.363281 7.960938 16.160156 6.691406 15.988281 5.109375 C 11.527344 6.121094 6.070312 8.488281 0.0820312 3.273438 C 0.0820312 14.96875 6.324219 25.949219 15.988281 27.742188 C 16.117188 26.117188 17.320312 24.785156 18.886719 24.449219 Z M 18.886719 24.449219 "/>
        <path style=" stroke:none;fill-rule:nonzero;fill:rgb(31.4%,56.1%,25.5%);fill-opacity:1;"
              d="M 24.34375 16.363281 C 24.34375 13.75 22.222656 11.632812 19.605469 11.632812 C 16.988281 11.632812 14.867188 13.75 14.867188 16.363281 C 14.867188 18.976562 16.988281 21.09375 19.605469 21.09375 C 22.222656 21.09375 24.34375 18.976562 24.34375 16.363281 Z M 24.34375 16.363281 "/>
        <path style=" stroke:none;fill-rule:nonzero;fill:rgb(31.4%,56.1%,25.5%);fill-opacity:1;"
              d="M 21.785156 4.707031 C 21.785156 5.910156 20.808594 6.882812 19.605469 6.882812 C 18.402344 6.882812 17.425781 5.910156 17.425781 4.707031 C 17.425781 3.507812 18.402344 2.535156 19.605469 2.535156 C 20.808594 2.535156 21.785156 3.507812 21.785156 4.707031 Z M 21.785156 4.707031 "/>
    </g>
</svg>
