<?xml version="1.0" encoding="UTF-8"?>
<svg xmlns="http://www.w3.org/2000/svg" xmlns:xlink="http://www.w3.org/1999/xlink" width="32px" height="32px" viewBox="0 0 32 21" version="1.1">
<g id="surface1">
<path style=" stroke:none;fill-rule:nonzero;fill:rgb(42.745098%,70.196078%,24.705882%);fill-opacity:1;" d="M 10.699219 17.089844 C 10.472656 17.359375 10.066406 17.402344 9.785156 17.183594 C 9.507812 16.964844 9.464844 16.566406 9.691406 16.296875 C 9.917969 16.027344 10.324219 15.988281 10.605469 16.207031 C 10.738281 16.3125 10.824219 16.464844 10.839844 16.628906 C 10.859375 16.796875 10.808594 16.960938 10.699219 17.089844 Z M 21.015625 14.886719 C 19.132812 17.308594 15.132812 16.492188 12.570312 16.609375 C 12.570312 16.609375 12.117188 16.632812 11.65625 16.707031 C 11.65625 16.707031 11.832031 16.636719 12.050781 16.558594 C 13.847656 15.957031 14.699219 15.835938 15.808594 15.289062 C 17.863281 14.265625 19.914062 12.042969 20.328125 9.730469 C 19.535156 11.957031 17.152344 13.867188 14.984375 14.644531 C 13.5 15.175781 10.8125 15.691406 10.8125 15.691406 L 10.703125 15.636719 C 8.882812 14.777344 8.824219 10.933594 12.140625 9.707031 C 13.597656 9.164062 14.988281 9.464844 16.558594 9.101562 C 18.234375 8.707031 20.179688 7.496094 20.96875 5.902344 C 21.851562 8.445312 22.917969 12.425781 21.007812 14.894531 Z M 21.015625 14.886719 "/>
<path style=" stroke:none;fill-rule:nonzero;fill:rgb(42.745098%,70.196078%,24.705882%);fill-opacity:1;" d="M 24.773438 21 L 8.078125 21 C 3.863281 21.003906 0.363281 17.855469 0.046875 13.785156 C -0.269531 9.710938 2.710938 6.09375 6.878906 5.488281 C 7.917969 4.09375 9.21875 2.523438 11.101562 1.453125 C 15.042969 -0.78125 20 -0.414062 23.546875 2.375 L 23.566406 2.390625 C 24.445312 3.121094 25.238281 3.945312 25.929688 4.84375 C 26.535156 5.585938 26.988281 6.433594 27.273438 7.339844 C 27.292969 7.40625 27.308594 7.441406 27.316406 7.464844 C 27.355469 7.484375 27.425781 7.515625 27.484375 7.539062 L 27.699219 7.628906 C 28.777344 8.105469 29.71875 8.828125 30.445312 9.730469 C 32.136719 11.832031 32.449219 14.683594 31.246094 17.078125 C 30.039062 19.472656 27.53125 20.996094 24.78125 21 Z M 16.632812 1.566406 C 14.976562 1.570312 13.347656 1.996094 11.917969 2.808594 C 10.289062 3.730469 9.117188 5.160156 8.183594 6.414062 L 8.144531 6.46875 C 7.96875 6.765625 7.660156 6.96875 7.3125 7.011719 C 3.929688 7.402344 1.445312 10.277344 1.648438 13.574219 C 1.851562 16.871094 4.671875 19.4375 8.082031 19.433594 L 24.773438 19.433594 C 26.910156 19.429688 28.855469 18.253906 29.789062 16.394531 C 30.726562 14.535156 30.484375 12.324219 29.171875 10.695312 C 28.796875 10.230469 28.347656 9.828125 27.847656 9.5 C 27.589844 9.332031 27.316406 9.183594 27.035156 9.054688 L 26.855469 8.980469 C 26.625 8.898438 26.40625 8.777344 26.21875 8.625 C 25.96875 8.390625 25.796875 8.089844 25.71875 7.765625 C 25.488281 7.042969 25.117188 6.367188 24.632812 5.777344 C 24.011719 4.972656 23.304688 4.238281 22.523438 3.585938 C 20.855469 2.277344 18.777344 1.5625 16.632812 1.566406 Z M 16.632812 1.566406 "/>
</g>
</svg>
