<?xml version="1.0" encoding="UTF-8"?>
<svg xmlns="http://www.w3.org/2000/svg" xmlns:xlink="http://www.w3.org/1999/xlink" width="16px" height="16px" viewBox="0 0 16 10" version="1.1">
<g id="surface1">
<path style=" stroke:none;fill-rule:nonzero;fill:rgb(42.745098%,70.196078%,24.705882%);fill-opacity:1;" d="M 5.351562 8.140625 C 5.238281 8.265625 5.03125 8.285156 4.894531 8.183594 C 4.753906 8.078125 4.734375 7.890625 4.847656 7.761719 C 4.957031 7.632812 5.164062 7.613281 5.300781 7.71875 C 5.371094 7.765625 5.410156 7.839844 5.421875 7.917969 C 5.429688 7.996094 5.402344 8.078125 5.351562 8.140625 Z M 10.507812 7.089844 C 9.566406 8.242188 7.566406 7.851562 6.285156 7.910156 C 6.285156 7.910156 6.058594 7.921875 5.828125 7.953125 C 5.828125 7.953125 5.914062 7.921875 6.023438 7.886719 C 6.925781 7.597656 7.351562 7.539062 7.902344 7.28125 C 8.933594 6.792969 9.957031 5.734375 10.164062 4.632812 C 9.769531 5.695312 8.578125 6.601562 7.492188 6.972656 C 6.75 7.226562 5.40625 7.472656 5.40625 7.472656 L 5.351562 7.445312 C 4.441406 7.035156 4.414062 5.207031 6.070312 4.621094 C 6.796875 4.363281 7.492188 4.507812 8.28125 4.332031 C 9.117188 4.148438 10.089844 3.570312 10.484375 2.808594 C 10.925781 4.023438 11.457031 5.917969 10.503906 7.09375 Z M 10.507812 7.089844 "/>
<path style=" stroke:none;fill-rule:nonzero;fill:rgb(42.745098%,70.196078%,24.705882%);fill-opacity:1;" d="M 12.386719 10 L 4.039062 10 C 1.933594 10 0.179688 8.503906 0.0234375 6.5625 C -0.132812 4.625 1.355469 2.902344 3.4375 2.613281 C 3.960938 1.949219 4.609375 1.203125 5.550781 0.691406 C 7.523438 -0.371094 10 -0.195312 11.773438 1.128906 L 11.785156 1.140625 C 12.222656 1.488281 12.621094 1.878906 12.964844 2.304688 C 13.265625 2.660156 13.496094 3.0625 13.636719 3.496094 C 13.644531 3.527344 13.652344 3.542969 13.65625 3.554688 C 13.679688 3.566406 13.714844 3.578125 13.742188 3.589844 L 13.851562 3.632812 C 14.386719 3.859375 14.859375 4.203125 15.222656 4.632812 C 16.070312 5.632812 16.222656 6.992188 15.621094 8.132812 C 15.019531 9.273438 13.765625 10 12.390625 10 Z M 8.316406 0.746094 C 7.488281 0.746094 6.675781 0.949219 5.960938 1.335938 C 5.144531 1.777344 4.558594 2.457031 4.089844 3.054688 L 4.074219 3.082031 C 3.984375 3.222656 3.832031 3.316406 3.65625 3.339844 C 1.964844 3.523438 0.722656 4.894531 0.824219 6.464844 C 0.925781 8.03125 2.335938 9.257812 4.039062 9.253906 L 12.386719 9.253906 C 13.453125 9.253906 14.425781 8.691406 14.894531 7.804688 C 15.363281 6.921875 15.242188 5.867188 14.585938 5.09375 C 14.398438 4.871094 14.175781 4.679688 13.921875 4.523438 C 13.792969 4.441406 13.660156 4.371094 13.519531 4.3125 L 13.429688 4.277344 C 13.3125 4.238281 13.203125 4.179688 13.109375 4.105469 C 12.984375 3.996094 12.898438 3.851562 12.859375 3.695312 C 12.742188 3.351562 12.558594 3.03125 12.316406 2.75 C 12.007812 2.367188 11.652344 2.019531 11.261719 1.707031 C 10.429688 1.085938 9.386719 0.746094 8.316406 0.746094 Z M 8.316406 0.746094 "/>
</g>
</svg>
