<?xml version="1.0" encoding="UTF-8"?>
<svg xmlns="http://www.w3.org/2000/svg" width="16px" height="16px" viewBox="0 0 16 14" version="1.1">
    <g id="surface1">
        <path style=" stroke:none;fill-rule:nonzero;fill:rgb(31.4%,56.1%,25.5%);fill-opacity:1;"
              d="M 15.796875 6.160156 L 12.644531 0.84375 C 12.371094 0.382812 11.699219 0.00390625 11.148438 0.00390625 L 4.851562 0.00390625 C 4.304688 0.00390625 3.628906 0.382812 3.355469 0.84375 L 0.207031 6.160156 C -0.0664062 6.621094 -0.0664062 7.375 0.207031 7.835938 L 3.355469 13.15625 C 3.628906 13.617188 4.300781 13.996094 4.851562 13.996094 L 11.152344 13.996094 C 11.699219 13.996094 12.371094 13.617188 12.644531 13.15625 L 15.796875 7.835938 C 16.070312 7.375 16.070312 6.621094 15.796875 6.160156 Z M 7.320312 2.945312 C 7.320312 2.59375 7.609375 2.3125 7.96875 2.3125 C 8.328125 2.3125 8.617188 2.59375 8.617188 2.945312 L 8.617188 6.726562 C 8.617188 7.074219 8.328125 7.359375 7.96875 7.359375 C 7.609375 7.359375 7.320312 7.074219 7.320312 6.726562 Z M 7.96875 11.015625 C 5.539062 11.015625 3.5625 9.089844 3.5625 6.726562 C 3.566406 5.367188 4.226562 4.09375 5.34375 3.28125 C 5.601562 3.09375 5.960938 3.144531 6.152344 3.394531 C 6.34375 3.648438 6.289062 4 6.03125 4.183594 C 4.59375 5.226562 4.292969 7.210938 5.363281 8.613281 C 6.429688 10.015625 8.46875 10.308594 9.90625 9.269531 C 10.734375 8.671875 11.21875 7.726562 11.21875 6.726562 C 11.214844 5.71875 10.726562 4.773438 9.894531 4.175781 C 9.636719 3.992188 9.585938 3.636719 9.773438 3.386719 C 9.960938 3.136719 10.324219 3.085938 10.582031 3.269531 C 11.707031 4.078125 12.371094 5.363281 12.375 6.726562 C 12.375 9.09375 10.398438 11.015625 7.96875 11.015625 Z M 7.96875 11.015625 "/>
    </g>
</svg>
